# xmcd
#
# Track frame offsets:
#	182
#	14232
#	30617
#	45395
#	58182
#	70207
#	85622
#	97337
#	110505
#	124535
#	139687
#	154020
#	166947
#	183880
#	197990
#	210525
#	226797
#	243025
#	258137
#
# Disc length: 3619 seconds
#
# Revision: 1
# Processed by: cddbd v1.4b42PL1 Copyright (c) Steve Scherf et al.
# Submitted via: audiograbber 1.80
#
DISCID=fa0e2113
DTITLE=Harry Belafonte - Greatest Hits Disc 1
DYEAR=1900
DGENRE=
TTITLE0=Banana Boat Song (Day-O)
TTITLE1=Matilda, Matilda
TTITLE2=Scarlet Ribbons
TTITLE3=Don't Ever Love Me
TTITLE4=Hold 'em Joe
TTITLE5=I'm Just A Country Boy
TTITLE6=Will His Love Be Like His Rum-
TTITLE7=Mama Look A Boo Boo
TTITLE8=Jamaica Farewell
TTITLE9=Zombie Jamboree (Back To Back)
TTITLE10=Island In The Sun
TTITLE11=I Do Adore Her
TTITLE12=Jump In The Line
TTITLE13=Come Back Liza
TTITLE14=Scratch, Scratch
TTITLE15=Man Smart (Woman Smarter)
TTITLE16=Sweetheart From Venezuela
TTITLE17=Kingstom Market
TTITLE18=Cocoanut Woman
EXTD=
EXTT0=
EXTT1=
EXTT2=
EXTT3=
EXTT4=
EXTT5=
EXTT6=
EXTT7=
EXTT8=
EXTT9=
EXTT10=
EXTT11=
EXTT12=
EXTT13=
EXTT14=
EXTT15=
EXTT16=
EXTT17=
EXTT18=
PLAYORDER=
